<svg width="24" height="24" viewBox="0 0 24 24" fill="none" xmlns="http://www.w3.org/2000/svg">
<path d="M19.6819 1.92188H4.32187C2.99707 1.92188 1.92188 2.99707 1.92188 4.32187V19.6819C1.92188 21.0067 2.99707 22.0819 4.32187 22.0819H19.6819C21.0067 22.0819 22.0819 21.0067 22.0819 19.6819V4.32187C22.0819 2.99707 21.0067 1.92188 19.6819 1.92188ZM17.7619 9.12187H16.8019C15.7747 9.12187 15.3619 9.36188 15.3619 10.0819V11.5219H17.7619L17.2819 13.9219H15.3619V21.1219H12.9619V13.9219H11.0419V11.5219H12.9619V10.0819C12.9619 8.16187 13.9219 6.72187 15.8419 6.72187C17.2339 6.72187 17.7619 7.20187 17.7619 7.20187V9.12187Z" fill="#434343"/>
</svg>
