<svg width="24" height="24" viewBox="0 0 24 24" fill="none" xmlns="http://www.w3.org/2000/svg">
<path d="M7.66667 2.25C4.67558 2.25 2.25 4.67558 2.25 7.66667V16.3333C2.25 19.3244 4.67558 21.75 7.66667 21.75H16.3333C19.3244 21.75 21.75 19.3244 21.75 16.3333V7.66667C21.75 4.67558 19.3244 2.25 16.3333 2.25H7.66667ZM18.5 4.41667C19.098 4.41667 19.5833 4.902 19.5833 5.5C19.5833 6.098 19.098 6.58333 18.5 6.58333C17.902 6.58333 17.4167 6.098 17.4167 5.5C17.4167 4.902 17.902 4.41667 18.5 4.41667ZM12 6.58333C14.9911 6.58333 17.4167 9.00892 17.4167 12C17.4167 14.9911 14.9911 17.4167 12 17.4167C9.00892 17.4167 6.58333 14.9911 6.58333 12C6.58333 9.00892 9.00892 6.58333 12 6.58333ZM12 8.75C11.138 8.75 10.3114 9.09241 9.7019 9.7019C9.09241 10.3114 8.75 11.138 8.75 12C8.75 12.862 9.09241 13.6886 9.7019 14.2981C10.3114 14.9076 11.138 15.25 12 15.25C12.862 15.25 13.6886 14.9076 14.2981 14.2981C14.9076 13.6886 15.25 12.862 15.25 12C15.25 11.138 14.9076 10.3114 14.2981 9.7019C13.6886 9.09241 12.862 8.75 12 8.75Z" fill="#434343"/>
</svg>
