<svg width="24" height="24" viewBox="0 0 24 24" fill="none" xmlns="http://www.w3.org/2000/svg">
<path d="M19.6819 1.92188H4.32187C2.99707 1.92188 1.92188 2.99707 1.92188 4.32187V19.6819C1.92188 21.0067 2.99707 22.0819 4.32187 22.0819H19.6819C21.0067 22.0819 22.0819 21.0067 22.0819 19.6819V4.32187C22.0819 2.99707 21.0067 1.92188 19.6819 1.92188ZM8.16187 9.60187V18.7219H5.28187V9.60187H8.16187ZM5.28187 6.94747C5.28187 6.27548 5.85787 5.76187 6.72187 5.76187C7.58588 5.76187 8.12827 6.27548 8.16187 6.94747C8.16187 7.61947 7.62427 8.16187 6.72187 8.16187C5.85787 8.16187 5.28187 7.61947 5.28187 6.94747ZM18.7219 18.7219H15.8419C15.8419 18.7219 15.8419 14.2771 15.8419 13.9219C15.8419 12.9619 15.3619 12.0019 14.1619 11.9827H14.1235C12.9619 11.9827 12.4819 12.9715 12.4819 13.9219C12.4819 14.3587 12.4819 18.7219 12.4819 18.7219H9.60187V9.60187H12.4819V10.8307C12.4819 10.8307 13.4083 9.60187 15.2707 9.60187C17.1763 9.60187 18.7219 10.9123 18.7219 13.5667V18.7219Z" fill="#434343"/>
</svg>
