<svg width="41" height="36" viewBox="0 0 41 36" fill="none" xmlns="http://www.w3.org/2000/svg">
<path d="M39.2645 19.701C38.2803 18.6347 36.9853 17.9239 35.6902 17.6192L29.6297 15.1819L35.0168 13.5064C36.4155 13.354 37.7105 12.7447 38.7982 11.7292C41.5436 9.1904 41.7509 4.87447 39.0573 2.13257C37.6587 0.710839 35.8457 0 34.0327 0C32.3233 0 30.6139 0.609291 29.2671 1.82792C26.5217 4.36673 26.3145 8.68266 29.0081 11.4246L29.0599 11.4753L24.2943 12.9986L7.04489 6.0423L1.39868 7.56557L29.5261 19.0917L29.4742 19.1425C26.6253 21.6305 26.3662 25.9464 28.9044 28.7391C30.3031 30.2623 32.1679 31.024 34.0327 31.024C35.1204 31.024 36.2601 30.7701 37.2442 30.2623C37.3478 31.481 36.8816 32.6996 35.8457 33.5628L38.0731 36C40.5077 33.8674 41.1811 30.5162 39.9379 27.6728C41.5436 25.134 41.3364 21.8843 39.2645 19.701ZM31.4945 4.21438C32.1679 3.60509 33.0485 3.24965 33.9809 3.24965C34.9651 3.24965 35.8974 3.60509 36.5708 4.31593C37.9695 5.73765 37.8659 7.97182 36.4155 9.29195C35.7421 9.90128 34.8615 10.2567 33.9291 10.2567C32.9449 10.2567 32.0124 9.90129 31.3391 9.1904C29.9923 7.76867 30.0441 5.58536 31.4945 4.21438ZM36.5191 26.8604C35.8457 27.4697 35.0168 27.7743 34.1362 27.7743C33.1003 27.7743 32.1679 27.3173 31.4945 26.5557C30.8211 25.8449 30.5621 24.9309 30.5621 24.017C30.6139 23.103 31.0801 22.2398 31.8053 21.5797C32.4787 20.9704 33.3075 20.6658 34.1881 20.6658C35.224 20.6658 36.1565 21.1227 36.8299 21.8843C38.1248 23.2553 37.9695 25.5402 36.5191 26.8604Z" fill="#FDFDFD"/>
<path d="M0 20.6674L5.5426 22.6477L21.8078 17.6209L16.576 15.4375L0 20.6674Z" fill="#FDFDFD"/>
</svg>
