<svg width="24" height="24" viewBox="0 0 24 24" fill="none" xmlns="http://www.w3.org/2000/svg">
<g clip-path="url(#clip0_27461_12847)">
<path d="M12.0053 0.953125C5.9155 0.953125 0.960938 5.90768 0.960938 11.9974C0.960938 18.0872 5.9155 23.0418 12.0053 23.0418C18.095 23.0418 23.0496 18.0877 23.0496 11.9974C23.0496 5.9072 18.095 0.953125 12.0053 0.953125ZM16.68 16.9616C16.5413 17.1699 16.3128 17.2822 16.08 17.2822C15.9427 17.2822 15.804 17.2434 15.6811 17.1613C14.4941 16.3698 12.4809 15.8418 10.8009 15.8422C9.01822 15.8432 7.6819 16.281 7.66846 16.2853C7.29214 16.413 6.88366 16.2075 6.7579 15.8302C6.63214 15.453 6.83614 15.045 7.21342 14.9197C7.27678 14.8986 8.78734 14.4037 10.8009 14.4027C12.4809 14.4018 14.8176 14.8549 16.4803 15.9632C16.8115 16.184 16.9008 16.6309 16.68 16.9616ZM18.1161 14.0144C17.9601 14.265 17.6909 14.4027 17.4158 14.4027C17.267 14.4027 17.1163 14.3629 16.9809 14.2779C14.8286 12.9368 12.6168 12.6531 10.7112 12.6699C8.55982 12.6891 6.8395 13.0995 6.81022 13.1082C6.37486 13.232 5.91694 12.9776 5.79262 12.5403C5.6683 12.1021 5.92318 11.6466 6.36094 11.5227C6.4939 11.4848 8.21086 11.0624 10.5614 11.0427C12.7046 11.025 15.3753 11.3355 17.8531 12.8792C18.2385 13.1192 18.3571 13.628 18.1161 14.0144ZM19.5489 10.568C19.3699 10.8723 19.0493 11.0418 18.72 11.0418C18.5549 11.0418 18.3878 10.999 18.2347 10.9098C15.7262 9.43713 12.6763 9.12464 10.5595 9.12176C10.5494 9.12176 10.5393 9.12176 10.5293 9.12176C7.96942 9.12176 5.99806 9.572 5.97838 9.5768C5.46094 9.69536 4.9459 9.37568 4.8259 8.8592C4.7059 8.3432 5.02606 7.82768 5.54206 7.7072C5.63086 7.68656 7.7371 7.20176 10.5293 7.20176C10.5403 7.20176 10.5513 7.20176 10.5624 7.20176C12.9168 7.20512 16.3277 7.5632 19.2072 9.25376C19.6641 9.52256 19.8173 10.111 19.5489 10.568Z" fill="#434343"/>
</g>
<defs>
<clipPath id="clip0_27461_12847">
<rect width="24" height="24" fill="white"/>
</clipPath>
</defs>
</svg>
